<svg width="252" height="44" viewBox="0 0 252 44" fill="none" xmlns="http://www.w3.org/2000/svg">
<path d="M32.3943 43V22.008H3.53025V43H0.58625V1.464H3.53025V19.384H32.3943V1.464H35.3383V43H32.3943ZM52.7593 28.6L46.8073 43H43.7993L61.2073 1.208H62.9353L80.4713 43H77.2073L71.1913 28.6H52.7593ZM61.9113 5.944C61.2713 7.864 60.6953 9.464 60.1833 10.744L53.7833 26.104H70.1673L63.8313 10.808C62.8499 8.41867 62.2099 6.79733 61.9113 5.944ZM88.8988 43V1.208H90.3068L117.571 32.568C118.552 33.6773 119.448 34.7867 120.259 35.896C121.112 36.9627 121.56 37.5173 121.603 37.56C121.517 36.536 121.475 34.5307 121.475 31.544V1.464H124.419V43.256H123.011L95.2348 11.384L91.7148 7.096C91.8001 7.94933 91.8428 9.95467 91.8428 13.112V43H88.8988ZM157.118 3.448C152.382 3.448 148.392 5.26133 145.15 8.888C141.95 12.472 140.35 16.888 140.35 22.136C140.35 27.384 142.163 31.8427 145.79 35.512C149.416 39.1387 153.683 40.952 158.59 40.952C163.539 40.952 167.379 40.376 170.11 39.224V22.136H173.054V40.568C169.726 42.616 165.011 43.64 158.91 43.64C152.808 43.64 147.667 41.5707 143.486 37.432C139.304 33.2933 137.214 28.216 137.214 22.2C137.214 16.1413 139.091 11.064 142.846 6.968C146.643 2.872 151.528 0.823997 157.502 0.823997C162.323 0.823997 167.038 1.57066 171.646 3.064L170.878 5.496C166.44 4.13066 161.854 3.448 157.118 3.448ZM187.024 43V1.464H206.416V4.024H189.968V19.128H204.816V21.624H189.968V40.312H207.056V43H187.024ZM218.836 43V1.656C222.506 1.35733 225.62 1.208 228.18 1.208C232.106 1.208 235.348 2.232 237.908 4.28C240.468 6.28533 241.748 9.16533 241.748 12.92C241.748 15.4373 241.023 17.7627 239.572 19.896C238.122 22.0293 236.479 23.7573 234.644 25.08C239.722 31.8213 242.858 35.8533 244.052 37.176C246.484 39.6933 249.13 41.1227 251.988 41.464L251.924 43.448C249.535 43.4053 247.594 43.064 246.1 42.424C244.607 41.7413 243.114 40.6107 241.62 39.032C240.17 37.4533 236.948 33.208 231.956 26.296C228.5 26.296 225.108 26.1893 221.78 25.976V43H218.836ZM230.356 23.864C232.02 23.864 233.812 22.7547 235.732 20.536C237.652 18.3173 238.612 15.736 238.612 12.792C238.612 9.848 237.61 7.608 235.604 6.072C233.599 4.536 230.996 3.768 227.796 3.768C226.09 3.768 224.084 3.85333 221.78 4.024V23.544C224.852 23.7573 227.711 23.864 230.356 23.864Z" fill="black"/>
</svg>
